<?xml version="1.0" encoding="UTF-8" standalone="no"?>
<!DOCTYPE svg PUBLIC "-//W3C//DTD SVG 1.1//EN" "http://www.w3.org/Graphics/SVG/1.1/DTD/svg11.dtd">
<!-- Created with Vectornator (http://vectornator.io/) -->
<svg height="797.2212647212223pt" stroke-miterlimit="10" style="fill-rule:nonzero;clip-rule:evenodd;stroke-linecap:round;stroke-linejoin:round;" version="1.1" viewBox="0 0 1032.84 797.221" width="1032.8410955508011pt" xml:space="preserve" xmlns="http://www.w3.org/2000/svg" xmlns:xlink="http://www.w3.org/1999/xlink">
<defs/>
<g id="Ebene-1">
<g opacity="1">
<path d="M223.689 627.654C223.689 712.438 223.689 712.438 223.689 797.221C259.396 773.417 293.176 746.837 327.506 721.089C367.741 690.913 398.859 638.378 448.626 631.114C619.844 606.126 794.765 633.127 967.71 627.654C1002.59 626.55 1029.41 577.382 1030 548.061C1033.2 388.907 1034.33 229.63 1030 70.5035C1029.71 59.8215 1012.49 30.5378 1002.32 22.0557C984.229 6.98357 973.026 1.37962 950.407 1.29229C659.722 0.169957 369.024-0.943696 78.3459 1.29229C42.7524 1.56609 2.46052 37.4132 2.21355 73.9641C1.09903 238.914-2.15454 403.929 2.21355 568.824C2.79255 590.681 39.0777 626.41 61.0431 627.654C115.172 630.718 169.474 627.654 223.689 627.654Z" fill="#fbcf1b" fill-rule="nonzero" opacity="1" stroke="none"/>
<path d="M393.257 174.32C394.41 199.698 410.181 228.91 396.717 250.453C382.498 273.205 348.043 273.059 324.046 285.058C299.091 297.536 271.102 306.857 251.374 326.585C286.469 345.056 324.826 366.701 362.112 381.954C372.24 386.097 388.363 382.548 393.257 392.336C402.042 409.906 395.564 431.555 396.717 451.165C329.61 458.622 229.266 386.206 171.781 354.269C155.021 344.958 138.366 327.154 157.939 302.361C169.77 287.374 192.933 286.997 209.847 278.137C271.724 245.725 333.307 210.29 393.257 174.32Z" fill="#541c92" fill-rule="nonzero" opacity="1" stroke="none"/>
<path d="M649.338 188.163C700.313 188.163 781.504 249.856 822.366 271.216C842.939 281.97 869.549 284.736 884.657 302.361C893.665 312.871 893.046 332.877 884.657 343.888C871.823 360.732 848.081 365.275 829.288 375.033C788.083 396.428 746.049 416.193 704.707 437.323C663.182 458.547 687.697 454.626 649.338 454.626C647.608 423.481 647.608 423.481 645.878 392.336C695.093 372.202 743.661 350.365 791.221 326.585C744.323 298.446 682.727 290.868 645.878 250.453C631.867 235.086 648.185 208.926 649.338 188.163Z" fill="#521a91" fill-rule="nonzero" opacity="1" stroke="none"/>
<path d="M548.982 118.951C580.93 96.9766 616.469 107.01 604.351 150.096C585.475 217.211 564.785 283.804 545.522 350.809C538.254 376.089 532.059 401.67 524.758 426.941C517.061 453.584 520.144 486.924 500.534 506.534C486.644 520.424 461.321 511.027 441.705 509.995C438.447 509.823 434.784 506.336 434.784 503.074C434.784 466.414 459.829 407.191 469.389 375.033C475.939 353.002 483.64 331.324 490.153 309.282C498.638 280.562 505.533 251.38 514.377 222.768C525.149 187.917 518.928 139.624 548.982 118.951Z" fill="#511b92" fill-rule="nonzero" opacity="1" stroke="none"/>
</g>
</g>
</svg>
