<svg xmlns="http://www.w3.org/2000/svg" xml:space="preserve" stroke-miterlimit="10" style="fill-rule:nonzero;clip-rule:evenodd;stroke-linecap:round;stroke-linejoin:round" viewBox="0 0 1032.8 797.2"><g id="Ebene-1"><g><path fill="#fbcf1b" d="M223.7 627.7v169.5c35.7-23.8 69.5-50.4 103.8-76.1 40.2-30.2 71.4-82.7 121.1-90 171.2-25 346.2 2 519.1-3.4 34.9-1.2 61.7-50.3 62.3-79.6a10097 10097 0 0 0 0-477.6c-.3-10.7-17.5-40-27.7-48.4C984.3 7 973 1.4 950.4 1.3 659.7.2 369-1 78.4 1.3 42.7 1.6 2.3 37.4 2.1 74 1 239-2.3 404 2.1 568.8c.6 21.9 36.9 57.6 58.8 58.9 54.2 3 108.5 0 162.7 0"/><path fill="#541c92" d="M393.3 174.3c1.1 25.4 16.9 54.6 3.4 76.2C382.5 273.2 348 273 324 285c-25 12.4-52.9 21.8-72.6 41.5 35 18.5 73.4 40.1 110.7 55.4 10.1 4.1 26.3.5 31.2 10.3 8.7 17.6 2.3 39.3 3.4 58.9-67 7.4-167.4-65-225-97-16.7-9.2-33.3-27-13.8-51.8 11.9-15 35-15.4 52-24.3a3661 3661 0 0 0 183.4-103.8"/><path fill="#521a91" d="M649.3 188.2c51 0 132.2 61.7 173 83 20.6 10.8 47.2 13.5 62.4 31.2 9 10.5 8.3 30.5 0 41.5-12.9 16.8-36.6 21.4-55.4 31.1-41.2 21.4-83.3 41.2-124.6 62.3-41.5 21.2-17 17.3-55.4 17.3l-3.4-62.3q74-30.1 145.3-65.7c-46.9-28.2-108.5-35.7-145.3-76.1-14-15.4 2.3-41.6 3.4-62.3"/><path fill="#511b92" d="M549 119c32-22 67.5-12 55.4 31.1-19 67.1-39.6 133.7-58.9 200.7-7.2 25.3-13.4 50.9-20.7 76.1-7.7 26.7-4.7 60-24.3 79.6-13.9 14-39.2 4.5-58.8 3.5-3.3-.2-7-3.7-7-7 0-36.6 25.1-95.8 34.7-128 6.5-22 14.2-43.7 20.8-65.7 8.4-28.7 15.3-58 24.2-86.5 10.7-34.9 4.5-83.2 34.6-103.8"/></g></g></svg>